<?xml version='1.0' encoding='utf-8'?>
<!DOCTYPE svg PUBLIC '-//W3C//DTD SVG 1.1//EN' 'http://www.w3.org/Graphics/SVG/1.1/DTD/svg11.dtd'>
<!-- Uploaded to: SVG Repo, www.svgrepo.com, Generator: SVG Repo Mixer Tools -->
<svg fill="#000000" height="800px" width="800px" version="1.1" xmlns="http://www.w3.org/2000/svg" viewBox="0 0 512 512" xmlns:xlink="http://www.w3.org/1999/xlink" enable-background="new 0 0 512 512">
  <g>
    <g>
      <path d="m480.6,11h-449.2c-11.3,0-20.4,9.1-20.4,20.4v449.2c0,11.3 9.1,20.4 20.4,20.4h449.2c11.3,0 20.4-9.1 20.4-20.4v-449.2c5.68434e-14-11.3-9.1-20.4-20.4-20.4zm-351.9,40.8h57.9v195.4c0,16-13,29-28.9,29-16,0-29-13-29-29v-195.4zm49.4,262.2c28.5-8.8 49.4-35.4 49.4-66.7v-195.5h57.1v195.4c0,31.4 20.8,58 49.4,66.7v146.2h-155.9v-146.1zm176.2-37.8c-16,0-28.9-13-28.9-29v-195.4h57.9v195.4c0,16-13,29-29,29zm-302.5-224.4h36.1v195.4c0,31.4 20.8,58 49.4,66.7v146.2h-85.5v-408.3zm408.4,408.4h-85.4v-146.2c28.5-8.8 49.4-35.4 49.4-66.7v-195.5h36v408.4z"/>
    </g>
  </g>
</svg>