<?xml version="1.0" encoding="iso-8859-1"?>
<!-- Uploaded to: SVG Repo, www.svgrepo.com, Generator: SVG Repo Mixer Tools -->
<svg fill="#000000" version="1.1" id="Layer_1" xmlns="http://www.w3.org/2000/svg" xmlns:xlink="http://www.w3.org/1999/xlink" 
	 viewBox="0 0 512 512" xml:space="preserve">
<g>
	<g>
		<polygon points="63.475,297.123 63.475,40.256 0,40.256 0,471.744 95.709,471.744 95.709,297.123 		"/>
	</g>
</g>
<g>
	<g>
		<polygon points="208.391,297.123 208.391,40.256 159.288,40.256 159.288,297.123 127.044,297.123 127.044,471.744 
			240.635,471.744 240.635,297.123 		"/>
	</g>
</g>
<g>
	<g>
		<polygon points="448.525,40.256 448.525,297.123 416.291,297.123 416.291,471.744 512,471.744 512,40.256 		"/>
	</g>
</g>
<g>
	<g>
		<polygon points="352.712,297.123 352.712,40.256 304.204,40.256 304.204,297.123 271.971,297.123 271.971,471.744 
			384.956,471.744 384.956,297.123 		"/>
	</g>
</g>
<g>
	<g>
		<rect x="94.811" y="40.558" width="33.142" height="225.229"/>
	</g>
</g>
<g>
	<g>
		<rect x="384.047" y="40.558" width="33.142" height="225.229"/>
	</g>
</g>
<g>
	<g>
		<rect x="239.726" y="40.558" width="33.142" height="225.229"/>
	</g>
</g>
</svg>